<?xml version="1.0" encoding="UTF-8" standalone="no"?>
<!DOCTYPE svg PUBLIC "-//W3C//DTD SVG 1.1//EN"
 "http://www.w3.org/Graphics/SVG/1.1/DTD/svg11.dtd">
<!-- Generated by graphviz version 3.0.0 (20220226.1711)
 -->
<!-- Title: dependencies Pages: 1 -->
<svg width="4098pt" height="247pt"
 viewBox="0.00 0.00 4098.00 246.80" xmlns="http://www.w3.org/2000/svg" xmlns:xlink="http://www.w3.org/1999/xlink">
<g id="graph0" class="graph" transform="scale(1 1) rotate(0) translate(4 242.8)">
<title>dependencies</title>
<polygon fill="white" stroke="transparent" points="-4,4 -4,-242.8 4094,-242.8 4094,4 -4,4"/>
<text text-anchor="middle" x="2045" y="-8.2" font-family="sans-serif" font-size="14.00">dependencies</text>
<g id="clust1" class="cluster">
<title>cluster_AppModule</title>
<polygon fill="none" stroke="black" stroke-dasharray="1,5" points="8,-32.8 8,-230.8 4082,-230.8 4082,-32.8 8,-32.8"/>
</g>
<g id="clust24" class="cluster">
<title>cluster_AppModule_imports</title>
<polygon fill="none" stroke="black" points="3930,-40.8 3930,-92.8 4074,-92.8 4074,-40.8 3930,-40.8"/>
</g>
<g id="clust26" class="cluster">
<title>cluster_AppModule_bootstrap</title>
<polygon fill="none" stroke="black" points="1740,-170.8 1740,-222.8 1864,-222.8 1864,-170.8 1740,-170.8"/>
</g>
<g id="clust2" class="cluster">
<title>cluster_AppModule_declarations</title>
<polygon fill="none" stroke="black" points="16,-40.8 16,-92.8 3922,-92.8 3922,-40.8 16,-40.8"/>
</g>
<!-- AppComponent -->
<g id="node1" class="node">
<title>AppComponent</title>
<polygon fill="#ffffb3" stroke="black" points="3913.94,-84.8 3808.06,-84.8 3808.06,-48.8 3913.94,-48.8 3913.94,-84.8"/>
<text text-anchor="middle" x="3861" y="-62.6" font-family="Times,serif" font-size="14.00">AppComponent</text>
</g>
<!-- AppModule -->
<g id="node22" class="node">
<title>AppModule</title>
<polygon fill="#8dd3c7" stroke="black" points="1843.66,-149.8 1840.66,-153.8 1819.66,-153.8 1816.66,-149.8 1760.34,-149.8 1760.34,-113.8 1843.66,-113.8 1843.66,-149.8"/>
<text text-anchor="middle" x="1802" y="-127.6" font-family="Times,serif" font-size="14.00">AppModule</text>
</g>
<!-- AppComponent&#45;&gt;AppModule -->
<g id="edge1" class="edge">
<title>AppComponent&#45;&gt;AppModule</title>
<path fill="none" stroke="black" d="M3861,-85.05C3861,-107.82 3861,-143.8 3861,-143.8 3861,-143.8 1854.06,-143.8 1854.06,-143.8"/>
<polygon fill="black" stroke="black" points="1854.06,-140.3 1844.06,-143.8 1854.06,-147.3 1854.06,-140.3"/>
</g>
<!-- DashboardComponent -->
<g id="node2" class="node">
<title>DashboardComponent</title>
<polygon fill="#ffffb3" stroke="black" points="3789.98,-84.8 3648.02,-84.8 3648.02,-48.8 3789.98,-48.8 3789.98,-84.8"/>
<text text-anchor="middle" x="3719" y="-62.6" font-family="Times,serif" font-size="14.00">DashboardComponent</text>
</g>
<!-- DashboardComponent&#45;&gt;AppModule -->
<g id="edge2" class="edge">
<title>DashboardComponent&#45;&gt;AppModule</title>
<path fill="none" stroke="black" d="M3719,-85.09C3719,-107.01 3719,-140.8 3719,-140.8 3719,-140.8 1853.82,-140.8 1853.82,-140.8"/>
<polygon fill="black" stroke="black" points="1853.82,-137.3 1843.82,-140.8 1853.82,-144.3 1853.82,-137.3"/>
</g>
<!-- DataProtectionComponent -->
<g id="node3" class="node">
<title>DataProtectionComponent</title>
<polygon fill="#ffffb3" stroke="black" points="3629.8,-84.8 3464.2,-84.8 3464.2,-48.8 3629.8,-48.8 3629.8,-84.8"/>
<text text-anchor="middle" x="3547" y="-62.6" font-family="Times,serif" font-size="14.00">DataProtectionComponent</text>
</g>
<!-- DataProtectionComponent&#45;&gt;AppModule -->
<g id="edge3" class="edge">
<title>DataProtectionComponent&#45;&gt;AppModule</title>
<path fill="none" stroke="black" d="M3547,-84.83C3547,-105.57 3547,-136.8 3547,-136.8 3547,-136.8 1853.84,-136.8 1853.84,-136.8"/>
<polygon fill="black" stroke="black" points="1853.84,-133.3 1843.84,-136.8 1853.84,-140.3 1853.84,-133.3"/>
</g>
<!-- DialogAddOrganisationComponent -->
<g id="node4" class="node">
<title>DialogAddOrganisationComponent</title>
<polygon fill="#ffffb3" stroke="black" points="3445.86,-84.8 3230.14,-84.8 3230.14,-48.8 3445.86,-48.8 3445.86,-84.8"/>
<text text-anchor="middle" x="3338" y="-62.6" font-family="Times,serif" font-size="14.00">DialogAddOrganisationComponent</text>
</g>
<!-- DialogAddOrganisationComponent&#45;&gt;AppModule -->
<g id="edge4" class="edge">
<title>DialogAddOrganisationComponent&#45;&gt;AppModule</title>
<path fill="none" stroke="black" d="M3338,-85.11C3338,-104.95 3338,-133.8 3338,-133.8 3338,-133.8 1853.88,-133.8 1853.88,-133.8"/>
<polygon fill="black" stroke="black" points="1853.88,-130.3 1843.88,-133.8 1853.88,-137.3 1853.88,-130.3"/>
</g>
<!-- DialogAddUserComponent -->
<g id="node5" class="node">
<title>DialogAddUserComponent</title>
<polygon fill="#ffffb3" stroke="black" points="3211.98,-84.8 3042.02,-84.8 3042.02,-48.8 3211.98,-48.8 3211.98,-84.8"/>
<text text-anchor="middle" x="3127" y="-62.6" font-family="Times,serif" font-size="14.00">DialogAddUserComponent</text>
</g>
<!-- DialogAddUserComponent&#45;&gt;AppModule -->
<g id="edge5" class="edge">
<title>DialogAddUserComponent&#45;&gt;AppModule</title>
<path fill="none" stroke="black" d="M3127,-84.97C3127,-103.89 3127,-130.8 3127,-130.8 3127,-130.8 1853.84,-130.8 1853.84,-130.8"/>
<polygon fill="black" stroke="black" points="1853.84,-127.3 1843.84,-130.8 1853.84,-134.3 1853.84,-127.3"/>
</g>
<!-- DialogEditAddressComponent -->
<g id="node6" class="node">
<title>DialogEditAddressComponent</title>
<polygon fill="#ffffb3" stroke="black" points="3024.15,-84.8 2835.85,-84.8 2835.85,-48.8 3024.15,-48.8 3024.15,-84.8"/>
<text text-anchor="middle" x="2930" y="-62.6" font-family="Times,serif" font-size="14.00">DialogEditAddressComponent</text>
</g>
<!-- DialogEditAddressComponent&#45;&gt;AppModule -->
<g id="edge6" class="edge">
<title>DialogEditAddressComponent&#45;&gt;AppModule</title>
<path fill="none" stroke="black" d="M2930,-85.1C2930,-103.07 2930,-127.8 2930,-127.8 2930,-127.8 1853.82,-127.8 1853.82,-127.8"/>
<polygon fill="black" stroke="black" points="1853.82,-124.3 1843.82,-127.8 1853.82,-131.3 1853.82,-124.3"/>
</g>
<!-- DialogEditOrganisationAdminsComponent -->
<g id="node7" class="node">
<title>DialogEditOrganisationAdminsComponent</title>
<polygon fill="#ffffb3" stroke="black" points="2817.92,-84.8 2558.08,-84.8 2558.08,-48.8 2817.92,-48.8 2817.92,-84.8"/>
<text text-anchor="middle" x="2688" y="-62.6" font-family="Times,serif" font-size="14.00">DialogEditOrganisationAdminsComponent</text>
</g>
<!-- DialogEditOrganisationAdminsComponent&#45;&gt;AppModule -->
<g id="edge7" class="edge">
<title>DialogEditOrganisationAdminsComponent&#45;&gt;AppModule</title>
<path fill="none" stroke="black" d="M2688,-84.84C2688,-101.53 2688,-123.8 2688,-123.8 2688,-123.8 1853.84,-123.8 1853.84,-123.8"/>
<polygon fill="black" stroke="black" points="1853.84,-120.3 1843.84,-123.8 1853.84,-127.3 1853.84,-120.3"/>
</g>
<!-- DialogEditOrganisationComponent -->
<g id="node8" class="node">
<title>DialogEditOrganisationComponent</title>
<polygon fill="#ffffb3" stroke="black" points="2540.58,-84.8 2325.42,-84.8 2325.42,-48.8 2540.58,-48.8 2540.58,-84.8"/>
<text text-anchor="middle" x="2433" y="-62.6" font-family="Times,serif" font-size="14.00">DialogEditOrganisationComponent</text>
</g>
<!-- DialogEditOrganisationComponent&#45;&gt;AppModule -->
<g id="edge8" class="edge">
<title>DialogEditOrganisationComponent&#45;&gt;AppModule</title>
<path fill="none" stroke="black" d="M2433,-85.08C2433,-100.75 2433,-120.8 2433,-120.8 2433,-120.8 1853.89,-120.8 1853.89,-120.8"/>
<polygon fill="black" stroke="black" points="1853.89,-117.3 1843.89,-120.8 1853.89,-124.3 1853.89,-117.3"/>
</g>
<!-- DialogEditOrganisationTodosComponent -->
<g id="node9" class="node">
<title>DialogEditOrganisationTodosComponent</title>
<polygon fill="#ffffb3" stroke="black" points="2307.08,-84.8 2056.92,-84.8 2056.92,-48.8 2307.08,-48.8 2307.08,-84.8"/>
<text text-anchor="middle" x="2182" y="-62.6" font-family="Times,serif" font-size="14.00">DialogEditOrganisationTodosComponent</text>
</g>
<!-- DialogEditOrganisationTodosComponent&#45;&gt;AppModule -->
<g id="edge9" class="edge">
<title>DialogEditOrganisationTodosComponent&#45;&gt;AppModule</title>
<path fill="none" stroke="black" d="M2182,-84.92C2182,-99.58 2182,-117.8 2182,-117.8 2182,-117.8 1853.75,-117.8 1853.75,-117.8"/>
<polygon fill="black" stroke="black" points="1853.75,-114.3 1843.75,-117.8 1853.75,-121.3 1853.75,-114.3"/>
</g>
<!-- DialogEditOrganisationUsersComponent -->
<g id="node10" class="node">
<title>DialogEditOrganisationUsersComponent</title>
<polygon fill="#ffffb3" stroke="black" points="2038.47,-84.8 1791.53,-84.8 1791.53,-48.8 2038.47,-48.8 2038.47,-84.8"/>
<text text-anchor="middle" x="1915" y="-62.6" font-family="Times,serif" font-size="14.00">DialogEditOrganisationUsersComponent</text>
</g>
<!-- DialogEditOrganisationUsersComponent&#45;&gt;AppModule -->
<g id="edge10" class="edge">
<title>DialogEditOrganisationUsersComponent&#45;&gt;AppModule</title>
<path fill="none" stroke="black" d="M1817.67,-84.91C1817.67,-84.91 1817.67,-103.79 1817.67,-103.79"/>
<polygon fill="black" stroke="black" points="1814.17,-103.79 1817.67,-113.79 1821.17,-103.79 1814.17,-103.79"/>
</g>
<!-- DialogEditUserComponent -->
<g id="node11" class="node">
<title>DialogEditUserComponent</title>
<polygon fill="#ffffb3" stroke="black" points="1773.7,-84.8 1604.3,-84.8 1604.3,-48.8 1773.7,-48.8 1773.7,-84.8"/>
<text text-anchor="middle" x="1689" y="-62.6" font-family="Times,serif" font-size="14.00">DialogEditUserComponent</text>
</g>
<!-- DialogEditUserComponent&#45;&gt;AppModule -->
<g id="edge11" class="edge">
<title>DialogEditUserComponent&#45;&gt;AppModule</title>
<path fill="none" stroke="black" d="M1766.88,-84.91C1766.88,-84.91 1766.88,-103.79 1766.88,-103.79"/>
<polygon fill="black" stroke="black" points="1763.38,-103.79 1766.88,-113.79 1770.38,-103.79 1763.38,-103.79"/>
</g>
<!-- DialogEditUserTodosComponent -->
<g id="node12" class="node">
<title>DialogEditUserTodosComponent</title>
<polygon fill="#ffffb3" stroke="black" points="1586.2,-84.8 1381.8,-84.8 1381.8,-48.8 1586.2,-48.8 1586.2,-84.8"/>
<text text-anchor="middle" x="1484" y="-62.6" font-family="Times,serif" font-size="14.00">DialogEditUserTodosComponent</text>
</g>
<!-- DialogEditUserTodosComponent&#45;&gt;AppModule -->
<g id="edge12" class="edge">
<title>DialogEditUserTodosComponent&#45;&gt;AppModule</title>
<path fill="none" stroke="black" d="M1484,-84.92C1484,-99.58 1484,-117.8 1484,-117.8 1484,-117.8 1750.1,-117.8 1750.1,-117.8"/>
<polygon fill="black" stroke="black" points="1750.1,-121.3 1760.1,-117.8 1750.1,-114.3 1750.1,-121.3"/>
</g>
<!-- FooterComponent -->
<g id="node13" class="node">
<title>FooterComponent</title>
<polygon fill="#ffffb3" stroke="black" points="1363.88,-84.8 1246.12,-84.8 1246.12,-48.8 1363.88,-48.8 1363.88,-84.8"/>
<text text-anchor="middle" x="1305" y="-62.6" font-family="Times,serif" font-size="14.00">FooterComponent</text>
</g>
<!-- FooterComponent&#45;&gt;AppModule -->
<g id="edge13" class="edge">
<title>FooterComponent&#45;&gt;AppModule</title>
<path fill="none" stroke="black" d="M1305,-85.08C1305,-100.75 1305,-120.8 1305,-120.8 1305,-120.8 1750.05,-120.8 1750.05,-120.8"/>
<polygon fill="black" stroke="black" points="1750.05,-124.3 1760.05,-120.8 1750.05,-117.3 1750.05,-124.3"/>
</g>
<!-- ImprintComponent -->
<g id="node14" class="node">
<title>ImprintComponent</title>
<polygon fill="#ffffb3" stroke="black" points="1227.82,-84.8 1104.18,-84.8 1104.18,-48.8 1227.82,-48.8 1227.82,-84.8"/>
<text text-anchor="middle" x="1166" y="-62.6" font-family="Times,serif" font-size="14.00">ImprintComponent</text>
</g>
<!-- ImprintComponent&#45;&gt;AppModule -->
<g id="edge14" class="edge">
<title>ImprintComponent&#45;&gt;AppModule</title>
<path fill="none" stroke="black" d="M1166,-84.84C1166,-101.53 1166,-123.8 1166,-123.8 1166,-123.8 1750.27,-123.8 1750.27,-123.8"/>
<polygon fill="black" stroke="black" points="1750.27,-127.3 1760.27,-123.8 1750.27,-120.3 1750.27,-127.3"/>
</g>
<!-- LoginComponent -->
<g id="node15" class="node">
<title>LoginComponent</title>
<polygon fill="#ffffb3" stroke="black" points="1086.27,-84.8 971.73,-84.8 971.73,-48.8 1086.27,-48.8 1086.27,-84.8"/>
<text text-anchor="middle" x="1029" y="-62.6" font-family="Times,serif" font-size="14.00">LoginComponent</text>
</g>
<!-- LoginComponent&#45;&gt;AppModule -->
<g id="edge15" class="edge">
<title>LoginComponent&#45;&gt;AppModule</title>
<path fill="none" stroke="black" d="M1029,-85.1C1029,-103.07 1029,-127.8 1029,-127.8 1029,-127.8 1750.17,-127.8 1750.17,-127.8"/>
<polygon fill="black" stroke="black" points="1750.17,-131.3 1760.17,-127.8 1750.17,-124.3 1750.17,-131.3"/>
</g>
<!-- OrganisationComponent -->
<g id="node16" class="node">
<title>OrganisationComponent</title>
<polygon fill="#ffffb3" stroke="black" points="953.65,-84.8 800.35,-84.8 800.35,-48.8 953.65,-48.8 953.65,-84.8"/>
<text text-anchor="middle" x="877" y="-62.6" font-family="Times,serif" font-size="14.00">OrganisationComponent</text>
</g>
<!-- OrganisationComponent&#45;&gt;AppModule -->
<g id="edge16" class="edge">
<title>OrganisationComponent&#45;&gt;AppModule</title>
<path fill="none" stroke="black" d="M877,-84.97C877,-103.89 877,-130.8 877,-130.8 877,-130.8 1750.15,-130.8 1750.15,-130.8"/>
<polygon fill="black" stroke="black" points="1750.15,-134.3 1760.15,-130.8 1750.15,-127.3 1750.15,-134.3"/>
</g>
<!-- OrganisationDetailComponent -->
<g id="node17" class="node">
<title>OrganisationDetailComponent</title>
<polygon fill="#ffffb3" stroke="black" points="781.86,-84.8 594.14,-84.8 594.14,-48.8 781.86,-48.8 781.86,-84.8"/>
<text text-anchor="middle" x="688" y="-62.6" font-family="Times,serif" font-size="14.00">OrganisationDetailComponent</text>
</g>
<!-- OrganisationDetailComponent&#45;&gt;AppModule -->
<g id="edge17" class="edge">
<title>OrganisationDetailComponent&#45;&gt;AppModule</title>
<path fill="none" stroke="black" d="M688,-85.11C688,-104.95 688,-133.8 688,-133.8 688,-133.8 1750.03,-133.8 1750.03,-133.8"/>
<polygon fill="black" stroke="black" points="1750.03,-137.3 1760.03,-133.8 1750.03,-130.3 1750.03,-137.3"/>
</g>
<!-- StartComponent -->
<g id="node18" class="node">
<title>StartComponent</title>
<polygon fill="#ffffb3" stroke="black" points="575.77,-84.8 468.23,-84.8 468.23,-48.8 575.77,-48.8 575.77,-84.8"/>
<text text-anchor="middle" x="522" y="-62.6" font-family="Times,serif" font-size="14.00">StartComponent</text>
</g>
<!-- StartComponent&#45;&gt;AppModule -->
<g id="edge18" class="edge">
<title>StartComponent&#45;&gt;AppModule</title>
<path fill="none" stroke="black" d="M522,-84.83C522,-105.57 522,-136.8 522,-136.8 522,-136.8 1750.14,-136.8 1750.14,-136.8"/>
<polygon fill="black" stroke="black" points="1750.14,-140.3 1760.14,-136.8 1750.14,-133.3 1750.14,-140.3"/>
</g>
<!-- TrusticonsComponent -->
<g id="node19" class="node">
<title>TrusticonsComponent</title>
<polygon fill="#ffffb3" stroke="black" points="450.44,-84.8 309.56,-84.8 309.56,-48.8 450.44,-48.8 450.44,-84.8"/>
<text text-anchor="middle" x="380" y="-62.6" font-family="Times,serif" font-size="14.00">TrusticonsComponent</text>
</g>
<!-- TrusticonsComponent&#45;&gt;AppModule -->
<g id="edge19" class="edge">
<title>TrusticonsComponent&#45;&gt;AppModule</title>
<path fill="none" stroke="black" d="M380,-85.09C380,-107.01 380,-140.8 380,-140.8 380,-140.8 1750.21,-140.8 1750.21,-140.8"/>
<polygon fill="black" stroke="black" points="1750.21,-144.3 1760.21,-140.8 1750.21,-137.3 1750.21,-144.3"/>
</g>
<!-- UserComponent -->
<g id="node20" class="node">
<title>UserComponent</title>
<polygon fill="#ffffb3" stroke="black" points="291.77,-84.8 184.23,-84.8 184.23,-48.8 291.77,-48.8 291.77,-84.8"/>
<text text-anchor="middle" x="238" y="-62.6" font-family="Times,serif" font-size="14.00">UserComponent</text>
</g>
<!-- UserComponent&#45;&gt;AppModule -->
<g id="edge20" class="edge">
<title>UserComponent&#45;&gt;AppModule</title>
<path fill="none" stroke="black" d="M238,-85.05C238,-107.82 238,-143.8 238,-143.8 238,-143.8 1750.17,-143.8 1750.17,-143.8"/>
<polygon fill="black" stroke="black" points="1750.17,-147.3 1760.17,-143.8 1750.17,-140.3 1750.17,-147.3"/>
</g>
<!-- UserDetailComponent -->
<g id="node21" class="node">
<title>UserDetailComponent</title>
<polygon fill="#ffffb3" stroke="black" points="165.97,-84.8 24.03,-84.8 24.03,-48.8 165.97,-48.8 165.97,-84.8"/>
<text text-anchor="middle" x="95" y="-62.6" font-family="Times,serif" font-size="14.00">UserDetailComponent</text>
</g>
<!-- UserDetailComponent&#45;&gt;AppModule -->
<g id="edge21" class="edge">
<title>UserDetailComponent&#45;&gt;AppModule</title>
<path fill="none" stroke="black" d="M95,-84.95C95,-108.56 95,-146.8 95,-146.8 95,-146.8 1750.23,-146.8 1750.23,-146.8"/>
<polygon fill="black" stroke="black" points="1750.23,-150.3 1760.23,-146.8 1750.23,-143.3 1750.23,-150.3"/>
</g>
<!-- AppComponent  -->
<g id="node24" class="node">
<title>AppComponent </title>
<polygon fill="#80b1d3" stroke="black" points="1856.44,-214.8 1747.56,-214.8 1747.56,-178.8 1856.44,-178.8 1856.44,-214.8"/>
<text text-anchor="middle" x="1802" y="-192.6" font-family="Times,serif" font-size="14.00">AppComponent </text>
</g>
<!-- AppModule&#45;&gt;AppComponent  -->
<g id="edge23" class="edge">
<title>AppModule&#45;&gt;AppComponent </title>
<path fill="none" stroke="black" stroke-dasharray="1,5" d="M1802,-149.91C1802,-149.91 1802,-168.79 1802,-168.79"/>
<polygon fill="black" stroke="black" points="1798.5,-168.79 1802,-178.79 1805.5,-168.79 1798.5,-168.79"/>
</g>
<!-- AppRoutingModule -->
<g id="node23" class="node">
<title>AppRoutingModule</title>
<polygon fill="#8dd3c7" stroke="black" points="4066.28,-84.8 4063.28,-88.8 4042.28,-88.8 4039.28,-84.8 3937.72,-84.8 3937.72,-48.8 4066.28,-48.8 4066.28,-84.8"/>
<text text-anchor="middle" x="4002" y="-62.6" font-family="Times,serif" font-size="14.00">AppRoutingModule</text>
</g>
<!-- AppRoutingModule&#45;&gt;AppModule -->
<g id="edge22" class="edge">
<title>AppRoutingModule&#45;&gt;AppModule</title>
<path fill="none" stroke="black" d="M4002,-84.95C4002,-108.56 4002,-146.8 4002,-146.8 4002,-146.8 1853.98,-146.8 1853.98,-146.8"/>
<polygon fill="black" stroke="black" points="1853.98,-143.3 1843.98,-146.8 1853.98,-150.3 1853.98,-143.3"/>
</g>
</g>
</svg>
